<?xml version="1.0" encoding="UTF-8" standalone="no"?> <svg xmlns="http://www.w3.org/2000/svg" xmlns:xlink="http://www.w3.org/1999/xlink" viewBox="0 0 512 512"><defs><linearGradient id="linear-gradient" x1="55.923" y1="515.237" x2="512.057" y2="59.103" gradientUnits="userSpaceOnUse"><stop offset="0" stop-color="#41dfd0"/><stop offset="1" stop-color="#ee83ef"/></linearGradient></defs><g id="gradient"><path d="M222.751,107.159l12.16-16a8,8,0,0,1,12.738,9.682l-12.16,16a8,8,0,0,1-12.738-9.682ZM18.343,354.343a8,8,0,0,0,11.314,11.314L40,355.313V384a8,8,0,0,0,16,0V355.313l10.343,10.344a8,8,0,1,0,11.314-11.314L56,332.687V315.313l10.343,10.344a8,8,0,1,0,11.314-11.314L56,292.687V275.313l10.343,10.344a8,8,0,1,0,11.314-11.314l-24-24a8,8,0,0,0-11.314,0l-24,24a8,8,0,0,0,11.314,11.314L40,275.313v17.374L18.343,314.343a8,8,0,0,0,11.314,11.314L40,315.313v17.374Zm72-24a8,8,0,0,0,11.314,11.314L112,331.313V384a8,8,0,0,0,16,0V331.313l10.343,10.344a8,8,0,1,0,11.314-11.314L128,308.687V291.313l10.343,10.344a8,8,0,1,0,11.314-11.314l-24-24a8,8,0,0,0-11.314,0l-24,24a8,8,0,0,0,11.314,11.314L112,291.313v17.374Zm392,3.314a8,8,0,0,0,11.314-11.314L472,300.687V283.313l10.343,10.344a8,8,0,0,0,11.314-11.314l-24-24a8,8,0,0,0-11.314,0l-24,24a8,8,0,0,0,11.314,11.314L456,283.313v17.374l-21.657,21.656a8,8,0,0,0,11.314,11.314L456,323.313v17.374l-21.657,21.656a8,8,0,0,0,11.314,11.314L456,363.313V392a8,8,0,0,0,16,0V363.313l10.343,10.344a8,8,0,0,0,11.314-11.314L472,340.687V323.313Zm-72-48a8,8,0,0,0,11.314-11.314l-24-24a8,8,0,0,0-11.314,0l-24,24a8,8,0,0,0,11.314,11.314L384,275.313v17.374l-21.657,21.656a8,8,0,0,0,11.314,11.314L384,315.313V360a8,8,0,0,0,16,0V315.313l10.343,10.344a8,8,0,0,0,11.314-11.314L400,292.687V275.313Zm-34.5,112.794c-.02.222-.05.443-.088.662l-15.878,90.273A8,8,0,0,1,352,496H208a8,8,0,0,1-6.049-13.236l58.6-67.7a14.809,14.809,0,0,0-4.274-21.32l-68.221-41.691a54.017,54.017,0,0,1-8.192-86.037l.249-.226c.658-.6,1.317-1.192,1.949-1.817L214.389,232H24a8,8,0,0,1,0-16h3.946l37.425-51.029H48a24,24,0,0,1-8.848-46.305,24.948,24.948,0,0,1,44.625-1.695H88a23.857,23.857,0,0,1,10.709,2.53l14.84-20.232A8,8,0,0,1,120,96h0a8,8,0,0,1,6.451,3.269l26.663,36.358,32.418-42.656H168a24,24,0,0,1-1.931-47.923,24.947,24.947,0,0,1,43.863,0,23.82,23.82,0,0,1,9.764,2.974l21.935-28.863a8,8,0,0,1,13.524,1.263L282.191,74.5l24.152-24.152a8,8,0,0,1,12.743,1.945l36.869,70.385,21.453-31.2a8,8,0,0,1,13.615.7l24.381,44.7,9.332-20.222a8,8,0,0,1,14.528,0L485.119,216H488a8,8,0,0,1,0,16H254.018l-38.166,54.524a13.521,13.521,0,0,0,5.957,20.269L352.69,360.335A37.318,37.318,0,0,1,375.845,398.451ZM364.351,138.7l40.49,77.3H467.5L432,139.091l-7.05,15.278,14.073,25.8a8,8,0,1,1-14.046,7.662l-15.985-29.306c0-.008-.011-.016-.015-.025l-25.764-47.234ZM168,76.971h40a8,8,0,0,0,0-16h-3.525A8,8,0,0,1,196.7,54.85a8.8,8.8,0,0,0-2.355-4.223,8.982,8.982,0,0,0-12.686,0,8.817,8.817,0,0,0-2.356,4.224,8,8,0,0,1-7.776,6.12H168a8,8,0,1,0,0,16Zm-120,72H88a8,8,0,0,0,0-16H78.362a8,8,0,0,1-7.776-6.121,8.8,8.8,0,0,0-2.355-4.222,8.947,8.947,0,0,0-15.073,4.347,8,8,0,0,1-6.487,6.123A7.991,7.991,0,0,0,48,148.971ZM47.788,216H92.032l50.984-67.086L120,117.527l-10.065,13.722A23.986,23.986,0,0,1,88,164.971H85.214Zm338.991,0L309.963,69.351,289.734,89.58,300.944,112H312a8,8,0,0,1,6.86,3.884l24,40a8,8,0,1,1-13.72,8.232L307.471,128H296a8,8,0,0,1-7.155-4.422l-16-32-26.253-52.5L230.4,60.376a23.989,23.989,0,0,1-22.4,32.6h-2.372l-46.171,60.753c-.019.027-.04.052-.06.079L112.128,216h27.9l61.6-81.051a8,8,0,1,1,12.738,9.681L160.128,216ZM346.632,375.144,215.751,321.6a29.522,29.522,0,0,1-13.007-44.254l25.772-36.817-35.2,34.819c-.835.826-1.656,1.571-2.45,2.291l-.243.221A38.016,38.016,0,0,0,196.4,338.4l68.221,41.69a30.811,30.811,0,0,1,8.583,44.775q-.169.225-.352.436L225.506,480H345.284l14.653-83.3A21.4,21.4,0,0,0,346.632,375.144ZM295.994,384a8,8,0,0,0,3.584-15.157l-16-8a8,8,0,0,0-7.156,14.31l16,8A7.976,7.976,0,0,0,295.994,384Zm37.663,2.341a8,8,0,0,0-11.314,11.314l8,8a8,8,0,0,0,11.314-11.314Zm-32,32a8,8,0,0,0-11.314,0l-8,8a8,8,0,0,0,11.314,11.314l8-8A8,8,0,0,0,301.657,418.343Zm30.781,15a8,8,0,0,0-11.094,2.218l-16,24a8,8,0,1,0,13.312,8.876l16-24A8,8,0,0,0,332.438,433.344ZM175.155,460.422A7.994,7.994,0,0,1,176,464v24a8,8,0,0,1-8,8H40a8,8,0,0,1-7.428-5.029l-16-40A8,8,0,0,1,17.6,443.2l24-32A8,8,0,0,1,48,408h56a8,8,0,0,1,7.155,4.422L116.944,424H152a8,8,0,0,1,7.155,4.422ZM45.416,480H120V458.422l-14.656-21.984c-.1-.157-.186-.324-.278-.486-.072-.126-.156-.243-.221-.374L99.056,424H52L33.1,449.2ZM160,465.889,147.056,440H126.948l7.708,11.562A7.993,7.993,0,0,1,136,456v24h24ZM328,312a8,8,0,0,0,8-8V289.888l.845,1.69a8,8,0,1,0,14.31-7.156l-16-32a8,8,0,0,0-14.31,0l-16,32a8,8,0,0,0,14.31,7.156l.845-1.69V304A8,8,0,0,0,328,312Zm-56,0a8,8,0,0,0,8-8V289.888l.845,1.69a8,8,0,1,0,14.31-7.156l-16-32a8,8,0,0,0-14.31,0l-16,32a8,8,0,1,0,14.31,7.156l.845-1.69V304A8,8,0,0,0,272,312ZM495.155,452.422A7.994,7.994,0,0,1,496,456v32a8,8,0,0,1-8,8H392a8,8,0,0,1-8-8V456a8,8,0,0,1,1.6-4.8l24-32A8,8,0,0,1,416,416h56a8,8,0,0,1,7.155,4.422ZM416,480V456a7.994,7.994,0,0,1,.845-3.578L427.056,432H420l-20,26.667V480Zm64-22.111L467.056,432H444.944L432,457.889V480h48ZM408,52.971a23.9,23.9,0,0,1,15.152-22.3,24.948,24.948,0,0,1,44.625-1.7H472a24,24,0,0,1,0,48H432A24.027,24.027,0,0,1,408,52.971Zm16,0a8.009,8.009,0,0,0,8,8h40a8,8,0,0,0,0-16h-9.638a8,8,0,0,1-7.776-6.121,8.8,8.8,0,0,0-2.355-4.222,8.947,8.947,0,0,0-15.073,4.347,8,8,0,0,1-6.487,6.123A7.959,7.959,0,0,0,424,52.971Z" style="fill:url(#linear-gradient)"/></g></svg>